<svg id="Capa_1" data-name="Capa 1" xmlns="http://www.w3.org/2000/svg" viewBox="0 0 422.33 445.43"><title>plane2</title><path d="M393.86,461.56l44.33-44.33L368.31,206.1l90.16-86.52a40.74,40.74,0,0,0,.6-58.2h0a40.74,40.74,0,0,0-58.2.6l-86.52,90.16L103.22,82.26,58.9,126.59,234.88,235l-89,92.79-57.1-9.38L48.67,358.42l84,29.41L162,471.78l40.06-40.06-9.38-57.1,92.8-89.05Z" transform="translate(-48.67 -26.35)" style="fill:#606060"/><path d="M393.86,438.46l44.33-44.32L368.31,183l90.16-86.51a40.74,40.74,0,0,0,.6-58.2h0a40.74,40.74,0,0,0-58.2.6L314.35,129,103.22,59.17,58.89,103.49l176,108.36-89,92.79-57.1-9.37L48.67,335.33l84,29.4,29.41,84,40.06-40.06-9.38-57.11,92.79-89Z" transform="translate(-48.67 -26.35)" style="fill:#e6e6e6"/><path d="M393.86,438.46l44.33-44.32L368.31,183l90.16-86.51a40.74,40.74,0,0,0,.6-58.2h0L132.62,364.73l29.41,84,40.06-40.06-9.38-57.11,92.79-89Z" transform="translate(-48.67 -26.35)" style="fill:#ccc"/></svg>